# xmcd
#
# Track frame offsets: 
#        150
#        16045
#        32190
#        51170
#        66262
#        83330
#        100702
#        117462
#        134955
#        152040
#        168895
#
# Disc length: 2495 seconds
#
# Revision: 1
# Processed by: cddbd v1.5PL3 Copyright (c) Steve Scherf et al.
# Submitted via: ExactAudioCopy v0.95a3
#
DISCID=8909bd0b
DTITLE=3 Of Hearts - 3 Of Hearts
DYEAR=2001
DGENRE=Country
TTITLE0=Love Is Enough
TTITLE1=It Happened To Me
TTITLE2=6, 8, 12
TTITLE3=Over The Edge
TTITLE4=Sugar And Daisies
TTITLE5=Arizona Rain
TTITLE6=The Hard Way
TTITLE7=Wash Away This Kiss
TTITLE8=You Break Me
TTITLE9=Is It Love
TTITLE10=Baby That's The Way
EXTD=
EXTT0=
EXTT1=
EXTT2=
EXTT3=
EXTT4=
EXTT5=
EXTT6=
EXTT7=
EXTT8=
EXTT9=
EXTT10=
PLAYORDER=
